# xmcd CD database file
#
# Track frame offsets:
#	150
#	7080
#	12792
#	18150
#	27144
#	33920
#	39250
#	44640
#	50392
#	57147
#	63017
#	70902
#	76050
#	82625
#	89332
#	95892
#	102092
#	110282
#	116100
#	122850
#	127837
#	133220
#	141982
#	146777
#	151820
#	158752
#	164055
#	172145
#	177740
#	183455
#	189557
#	198845
#	204662
#	212152
#	218175
#	227427
#	233170
#	239147
#	245107
#	251590
#	256900
#	265422
#	273987
#	281927
#	290715
#	297730
#	304187
#	310930
#	316470
#	322040
#
# Disc length: 4415 seconds
#
# Revision: 0
# Processed by: cddbd v1.5.1PL0 Copyright (c) Steve Scherf et al.
# Submitted via: CDex 1.51
#
DISCID=f3113d32
DTITLE=Irma Miria - Salmo Resposta Ano C - CD 01
DYEAR=2003
DGENRE=Religioso
TTITLE0=01 Advento
TTITLE1=02 Advento
TTITLE2=03  Advento
TTITLE3=04 Advento
TTITLE4=05 Natal Vigilia 89
TTITLE5=06 Natal Noite 96
TTITLE6=07 Natal Aurora 97
TTITLE7=08 Natal Dia 98
TTITLE8=09 Sagr Familia 128
TTITLE9=10 Mae de Deus 67
TTITLE10=11 Dom 2 depois Natal
TTITLE11=12 Epifania 72
TTITLE12=13 Batismo 29
TTITLE13=14 Quaresma dom 1
TTITLE14=15 Quaresma dom 2
TTITLE15=16 Quaresma dom 3
TTITLE16=17 Quaresma dom 4
TTITLE17=18 Quaresma dom 5
TTITLE18=19 Dom Ramos
TTITLE19=20 Crisma sl 89
TTITLE20=21 Ceia Santa
TTITLE21=22 Sexta Santa
TTITLE22=23 Vigilia Pascal 1 sl 104
TTITLE23=24 Vigilia Pascal 1 sl 33
TTITLE24=25 Vigilia Pascal 2 sl 16
TTITLE25=26 Vigilia Pascal 3 Ex 15
TTITLE26=27 Vigilia Pascal 4 sl 30
TTITLE27=28 Vigilia Pascal 5 Is 12
TTITLE28=29 Vigilia Pascal 6 sl 19
TTITLE29=30 Vigilia Pascal 7 sl 42
TTITLE30=31 Vigilia Pascal Novo testamento sl 118
TTITLE31=32 Ressurrei Dia sl 118
TTITLE32=33 Sequencia Pascal
TTITLE33=34 Pascoa 2 domingo
TTITLE34=35 Pascoa 3 domingo
TTITLE35=36 Pascoa 4 domingo
TTITLE36=37 Pascoa 5 domingo
TTITLE37=38 Pascoa 6 domingo
TTITLE38=39 Pascoa 7 domingo
TTITLE39=40 Ascebsai sl 47
TTITLE40=41 Pentecoste Vigilia sl 104
TTITLE41=42 Pentecoste Dia sl 104
TTITLE42=43 Pentecoste Sequencia
TTITLE43=44 SS Trindade sl 9
TTITLE44=45 Corpus Christi sl 110
TTITLE45=46 Corpus Christi Sequencia
TTITLE46=47 Sagr Cor Jesus sl 23
TTITLE47=48 Dom Comum 2
TTITLE48=49 Dom Comum 3
TTITLE49=50 Dom Comum 4
EXTD=YEAR: 2003
EXTT0=
EXTT1=
EXTT2=
EXTT3=
EXTT4=
EXTT5=
EXTT6=
EXTT7=
EXTT8=
EXTT9=
EXTT10=
EXTT11=
EXTT12=
EXTT13=
EXTT14=
EXTT15=
EXTT16=
EXTT17=
EXTT18=
EXTT19=
EXTT20=
EXTT21=
EXTT22=
EXTT23=
EXTT24=
EXTT25=
EXTT26=
EXTT27=
EXTT28=
EXTT29=
EXTT30=
EXTT31=
EXTT32=
EXTT33=
EXTT34=
EXTT35=
EXTT36=
EXTT37=
EXTT38=
EXTT39=
EXTT40=
EXTT41=
EXTT42=
EXTT43=
EXTT44=
EXTT45=
EXTT46=
EXTT47=
EXTT48=
EXTT49=
PLAYORDER=
